<svg width="24" height="23" viewBox="0 0 24 23" fill="none" xmlns="http://www.w3.org/2000/svg">
<path d="M23.5915 10.175L12.8254 0.323488C12.5987 0.115391 12.3027 0 11.9956 0C11.6884 0 11.3924 0.115391 11.1657 0.323488L0.399616 10.175C0.21694 10.343 0.0889754 10.5623 0.032462 10.8045C-0.0240514 11.0467 -0.0064826 11.3003 0.0828703 11.5323C0.172223 11.7642 0.3292 11.9637 0.533265 12.1046C0.737331 12.2455 0.978984 12.3212 1.22661 12.3219H2.94684V22.1925C2.94634 22.2858 2.96425 22.3783 2.99954 22.4646C3.03482 22.5509 3.08678 22.6293 3.15242 22.6953C3.21805 22.7613 3.29606 22.8136 3.38193 22.8491C3.4678 22.8847 3.55984 22.9028 3.65272 22.9024H8.45763C8.55036 22.9028 8.64224 22.8848 8.72799 22.8493C8.81374 22.8139 8.89166 22.7618 8.95727 22.696C9.02288 22.6301 9.07488 22.552 9.11028 22.4659C9.14567 22.3798 9.16377 22.2875 9.16352 22.1944V16.2071H14.8238V22.2011C14.8237 22.2942 14.8419 22.3864 14.8773 22.4724C14.9127 22.5584 14.9648 22.6365 15.0303 22.7023C15.0959 22.7681 15.1738 22.8202 15.2595 22.8557C15.3452 22.8912 15.437 22.9093 15.5297 22.9091H20.3403C20.4329 22.9093 20.5247 22.8912 20.6103 22.8557C20.696 22.8202 20.7738 22.7681 20.8393 22.7023C20.9048 22.6365 20.9567 22.5583 20.9921 22.4723C21.0274 22.3863 21.0455 22.2941 21.0452 22.2011V12.3257H22.7664C23.0151 12.3265 23.2582 12.2514 23.4636 12.1106C23.669 11.9697 23.827 11.7696 23.9169 11.5367C24.0068 11.3038 24.0242 11.049 23.967 10.8059C23.9097 10.5628 23.7805 10.3428 23.5962 10.175H23.5915Z" fill="white"/>
</svg>
