<svg width="17" height="30" viewBox="0 0 17 30" fill="none" xmlns="http://www.w3.org/2000/svg">
<path d="M13.3392 2.15024e-07H3.24012C2.81458 -0.000154838 2.39317 0.0835475 2 0.246324C1.60682 0.4091 1.24957 0.647759 0.948663 0.948663C0.647759 1.24957 0.4091 1.60682 0.246324 2C0.0835475 2.39317 -0.000154838 2.81458 2.15024e-07 3.24012V26.7599C2.15024e-07 27.6192 0.341369 28.4434 0.949009 29.051C1.55665 29.6586 2.38079 30 3.24012 30H13.3392C14.1985 29.9997 15.0224 29.6582 15.63 29.0506C16.2376 28.4431 16.579 27.6191 16.5794 26.7599V3.24012C16.5794 2.38079 16.238 1.55665 15.6303 0.949009C15.0227 0.341369 14.1986 2.15024e-07 13.3392 2.15024e-07ZM8.29145 28.0932C8.03474 28.0932 7.7838 28.0171 7.57035 27.8745C7.35691 27.7319 7.19055 27.5291 7.09231 27.292C6.99407 27.0548 6.96837 26.7938 7.01845 26.5421C7.06853 26.2903 7.19215 26.059 7.37367 25.8775C7.55519 25.696 7.78646 25.5724 8.03823 25.5223C8.29001 25.4722 8.55098 25.4979 8.78814 25.5961C9.02531 25.6944 9.22802 25.8607 9.37064 26.0742C9.51326 26.2876 9.58938 26.5386 9.58938 26.7953C9.58938 27.1395 9.45263 27.4697 9.20922 27.7131C8.96581 27.9565 8.63568 28.0932 8.29145 28.0932ZM11.2968 2.51681H5.28614C4.55929 2.51681 4.55929 1.38761 5.28614 1.38761H11.2968C12.0236 1.38761 12.0236 2.51681 11.2968 2.51681Z" fill="white"/>
</svg>
