<svg width="818" height="396" viewBox="0 0 818 396" fill="none" xmlns="http://www.w3.org/2000/svg">
<path d="M9 292L38.1535 338.942C38.3639 339.281 38.7552 339.462 39.1496 339.404L51.4826 337.577C51.8067 337.529 52.1338 337.642 52.3581 337.881L105.352 394.309C105.715 394.697 106.318 394.732 106.725 394.39L209.74 307.64C210.16 307.286 210.788 307.338 211.145 307.756L235.812 336.693C236.185 337.131 236.85 337.164 237.265 336.766L346.763 231.707C347.167 231.319 347.812 231.339 348.191 231.752L363.716 248.647C364.129 249.097 364.845 249.074 365.229 248.6L379.299 231.248C379.43 231.087 379.608 230.97 379.808 230.915L446.836 212.323C447.441 212.155 447.743 211.479 447.466 210.917L412.961 140.936C412.71 140.425 412.934 139.808 413.454 139.579L450.761 123.106C450.918 123.036 451.054 122.928 451.157 122.791L472.797 93.937C473.166 93.4452 473.008 92.7401 472.464 92.4529L447.402 79.2123C447.147 79.0774 446.962 78.8387 446.896 78.5577L434.617 26.4956C434.543 26.1842 434.623 25.8565 434.832 25.614L455.57 1.50006C455.831 1.19671 456.247 1.07806 456.629 1.19843L539.858 27.4553C539.952 27.4849 540.05 27.5005 540.149 27.5016L680.214 28.9916C680.675 28.9965 681.073 29.3164 681.177 29.7658L698.269 103.503C698.396 104.05 698.947 104.385 699.491 104.246L804 77.5" stroke="white" stroke-width="2" stroke-linecap="round" stroke-linejoin="round" stroke-dasharray="10 10"/>
<circle cx="806" cy="77" r="4" fill="white"/>
<circle cx="8" cy="290" r="4" fill="white"/>
<path d="M817.591 50.175L806.825 40.3235C806.599 40.1154 806.303 40 805.996 40C805.688 40 805.392 40.1154 805.166 40.3235L794.4 50.175C794.217 50.343 794.089 50.5623 794.032 50.8045C793.976 51.0467 793.994 51.3003 794.083 51.5323C794.172 51.7642 794.329 51.9637 794.533 52.1046C794.737 52.2455 794.979 52.3212 795.227 52.3219H796.947V62.1925C796.946 62.2858 796.964 62.3783 797 62.4646C797.035 62.5509 797.087 62.6293 797.152 62.6953C797.218 62.7613 797.296 62.8136 797.382 62.8491C797.468 62.8847 797.56 62.9028 797.653 62.9024H802.458C802.55 62.9028 802.642 62.8848 802.728 62.8493C802.814 62.8139 802.892 62.7618 802.957 62.696C803.023 62.6301 803.075 62.552 803.11 62.4659C803.146 62.3798 803.164 62.2875 803.164 62.1944V56.2071H808.824V62.2011C808.824 62.2942 808.842 62.3864 808.877 62.4724C808.913 62.5584 808.965 62.6365 809.03 62.7023C809.096 62.7681 809.174 62.8202 809.259 62.8557C809.345 62.8912 809.437 62.9093 809.53 62.9091H814.34C814.433 62.9093 814.525 62.8912 814.61 62.8557C814.696 62.8202 814.774 62.7681 814.839 62.7023C814.905 62.6365 814.957 62.5583 814.992 62.4723C815.027 62.3863 815.045 62.2941 815.045 62.2011V52.3257H816.766C817.015 52.3265 817.258 52.2514 817.464 52.1106C817.669 51.9697 817.827 51.7696 817.917 51.5367C818.007 51.3038 818.024 51.049 817.967 50.8059C817.91 50.5628 817.78 50.3428 817.596 50.175H817.591Z" fill="white"/>
<path d="M13.3392 246H3.24012C2.81458 246 2.39317 246.084 2 246.246C1.60682 246.409 1.24957 246.648 0.948663 246.949C0.647759 247.25 0.4091 247.607 0.246324 248C0.0835475 248.393 -0.000154838 248.815 2.15024e-07 249.24V272.76C2.15024e-07 273.619 0.341369 274.443 0.949009 275.051C1.55665 275.659 2.38079 276 3.24012 276H13.3392C14.1985 276 15.0224 275.658 15.63 275.051C16.2376 274.443 16.579 273.619 16.5794 272.76V249.24C16.5794 248.381 16.238 247.557 15.6303 246.949C15.0227 246.341 14.1986 246 13.3392 246V246ZM8.29145 274.093C8.03474 274.093 7.7838 274.017 7.57035 273.874C7.35691 273.732 7.19055 273.529 7.09231 273.292C6.99407 273.055 6.96837 272.794 7.01845 272.542C7.06853 272.29 7.19215 272.059 7.37367 271.878C7.55519 271.696 7.78646 271.572 8.03823 271.522C8.29001 271.472 8.55098 271.498 8.78814 271.596C9.02531 271.694 9.22802 271.861 9.37064 272.074C9.51326 272.288 9.58938 272.539 9.58938 272.795C9.58938 273.14 9.45263 273.47 9.20922 273.713C8.96581 273.956 8.63568 274.093 8.29145 274.093ZM11.2968 248.517H5.28614C4.55929 248.517 4.55929 247.388 5.28614 247.388H11.2968C12.0236 247.388 12.0236 248.517 11.2968 248.517Z" fill="white"/>
</svg>
